<svg width="73" height="95" viewBox="0 0 73 95" fill="none" xmlns="http://www.w3.org/2000/svg">
<g clip-path="url(#clip0_2290_21039)">
<path d="M69.1831 56.4205V88.9338C69.1831 92.1441 66.5602 94.7703 63.3538 94.7703H9.6467C6.4403 94.7703 3.81738 92.1441 3.81738 88.9338V56.4205C3.81738 55.6862 3.95371 54.9846 4.20455 54.3349C5.04705 52.1455 7.17374 50.584 9.6467 50.584H63.3511C65.824 50.584 67.9507 52.1482 68.7932 54.3349C69.0441 54.9846 69.1804 55.6862 69.1804 56.4205H69.1831Z" fill="#EF5C22"/>
<path d="M69.1831 56.4196V63.2963H3.81738V56.4196C3.81738 55.6853 3.95371 54.9837 4.20455 54.334H68.7959C69.0468 54.9837 69.1831 55.6853 69.1831 56.4196Z" fill="#C94111"/>
<path d="M62.3846 18.8382L10.6162 25.1603C4.90188 25.8581 0.851833 31.192 1.57014 37.0739L1.6358 37.6115C2.3541 43.4934 7.56875 47.6959 13.283 46.998L65.0514 40.676C70.7657 39.9781 74.8158 34.6442 74.0975 28.7624L74.0318 28.2247C73.3135 22.3428 68.0989 18.1404 62.3846 18.8382Z" fill="#EF5C22"/>
<path d="M61.9628 11.4004C60.6001 8.27208 59.1777 5.1043 56.7454 2.46139C55.2853 0.874074 53.356 -0.551434 50.934 -0.973453C47.1342 -1.63424 43.1442 0.376633 40.7439 2.96618C36.2953 7.76674 31.5619 22.786 40.7911 24.4504C46.3213 25.4472 52.3805 24.7485 57.5111 22.5185C59.7518 21.5463 61.9277 20.1778 62.8172 18.2623C63.8591 16.0201 62.9173 13.594 61.9624 11.3977L61.9628 11.4004ZM45.0352 19.3695C44.1477 19.2772 43.203 19.0542 42.58 18.5858C42.3562 18.4179 42.1751 18.2172 42.053 17.9819C41.6755 17.2524 41.9805 16.3984 42.3268 15.6355C43.5869 12.8634 45.6996 8.68366 49.4451 11.9803C50.6762 13.0648 51.8413 14.3058 52.0609 15.7889C52.5908 19.3406 48.2126 19.7021 45.0355 19.3723L45.0352 19.3695Z" fill="#FBB03B"/>
<path d="M9.80966 23.6377C11.0639 25.3381 13.4683 26.2463 15.8566 26.7522C21.3271 27.913 27.4082 27.3931 32.626 25.3148C41.3383 21.8472 33.7061 8.0685 28.3918 4.25118C25.5251 2.18935 21.2146 1.01339 17.623 2.41732C15.3317 3.31318 13.728 5.09314 12.6104 6.94025C10.7529 10.0163 9.99066 13.4013 9.27759 16.7392C8.77822 19.0828 8.33879 21.6474 9.80663 23.6353L9.80966 23.6377ZM19.8564 19.0637C19.7779 17.5662 20.6723 16.1177 21.6609 14.8116C24.6747 10.8353 27.5791 14.5096 29.3662 16.9756C29.8585 17.6553 30.3268 18.4314 30.1018 19.2207C30.0288 19.4771 29.8922 19.7083 29.7063 19.918C29.1897 20.5009 28.3083 20.9083 27.4563 21.1746C24.4087 22.1298 20.044 22.6463 19.8561 19.061L19.8564 19.0637Z" fill="#FBB03B"/>
<path d="M31.1735 63H42.8265C43.4725 63 44 63.2707 44 63.6054V94.153C44 94.6202 43.2638 95 42.3583 95H31.6417C30.7362 95 30 94.6202 30 94.153V63.6054C30 63.2721 30.5247 63 31.1735 63Z" fill="#FBB03B"/>
<path d="M30.9705 20.6605L42.5376 19.2479C43.1788 19.1696 43.727 19.3071 43.7575 19.5563L46.5347 42.2981C46.5772 42.6459 45.8809 43.0179 44.9821 43.1277L34.3446 44.4267C33.4458 44.5365 32.6804 44.343 32.638 43.9952L29.8607 21.2534C29.8304 21.0053 30.3265 20.7391 30.9705 20.6605Z" fill="#FBB03B"/>
</g>
<defs>
<clipPath id="clip0_2290_21039">
<rect width="73" height="95" fill="white"/>
</clipPath>
</defs>
</svg>
