<svg width="73" height="95" viewBox="0 0 73 95" fill="none" xmlns="http://www.w3.org/2000/svg">
<path d="M69.1831 61.7254V89.7681C69.1831 92.537 66.5602 94.8021 63.3538 94.8021H9.6467C6.4403 94.8021 3.81738 92.537 3.81738 89.7681V61.7254C3.81738 61.0921 3.95371 60.4869 4.20455 59.9266C5.04705 58.0382 7.17374 56.6914 9.6467 56.6914H63.3511C65.824 56.6914 67.9507 58.0406 68.7932 59.9266C69.0441 60.4869 69.1804 61.0921 69.1804 61.7254H69.1831Z" fill="#EF5C22"/>
<path d="M69.1831 61.7247V67.6558H3.81738V61.7247C3.81738 61.0913 3.95371 60.4862 4.20455 59.9258H68.7959C69.0468 60.4862 69.1831 61.0913 69.1831 61.7247Z" fill="#C94111"/>
<path d="M62.5765 45H10.4235C4.66676 45 0 49.1486 0 54.2661V54.7339C0 59.8514 4.66676 64 10.4235 64H62.5765C68.3332 64 73 59.8514 73 54.7339V54.2661C73 49.1486 68.3332 45 62.5765 45Z" fill="#EF5C22"/>
<path d="M63.0594 38.5613C62.0861 35.7405 61.0582 32.8797 58.9642 30.3627C57.7073 28.8511 55.965 27.429 53.612 26.8144C49.9203 25.8514 45.716 27.1558 43.0195 29.1219C38.0218 32.7667 31.5026 45.1304 40.462 47.5203C45.8305 48.9519 51.9298 48.9872 57.2928 47.6145C59.6349 47.0164 61.9606 46.0723 63.0758 44.5253C64.3818 42.7147 63.7411 40.5391 63.0594 38.5589V38.5613ZM45.2907 43.6141C44.4209 43.4422 43.5103 43.1526 42.9486 42.6864C42.7468 42.5192 42.5914 42.3285 42.4987 42.1143C42.2124 41.4503 42.6187 40.751 43.0549 40.1341C44.6418 37.8926 47.2456 34.535 50.5638 37.7489C51.6544 38.8061 52.6605 39.9905 52.6986 41.2831C52.7941 44.3793 48.4044 44.231 45.2907 43.6165V43.6141Z" fill="#FBB03B"/>
<path d="M9.8076 43.586C10.8464 45.173 13.1231 46.2019 15.4324 46.8847C20.7219 48.4505 26.8211 48.6412 32.2524 47.4075C41.3208 45.3496 35.4151 32.7551 30.6028 28.9313C28.0072 26.8664 23.871 25.4089 20.1357 26.2354C17.7527 26.7628 15.945 28.119 14.6117 29.5835C12.3951 32.0228 11.2281 34.8412 10.1157 37.6243C9.33591 39.5786 8.58884 41.7283 9.80488 43.5837L9.8076 43.586ZM20.3347 40.7205C20.4383 39.4302 21.5017 38.2836 22.6414 37.2688C26.115 34.1796 28.5525 37.629 30.0275 39.9271C30.4338 40.5604 30.8046 41.2739 30.4856 41.9261C30.382 42.138 30.2184 42.3216 30.0084 42.4817C29.425 42.9268 28.5007 43.1834 27.6227 43.3223C24.4818 43.8215 20.0866 43.8074 20.3347 40.7182V40.7205Z" fill="#FBB03B"/>
<path d="M31.1735 64H42.8265C43.4725 64 44 64.2622 44 64.5865V94.1795C44 94.632 43.2638 95 42.3583 95H31.6417C30.7362 95 30 94.632 30 94.1795V64.5865C30 64.2636 30.5247 64 31.1735 64Z" fill="#FBB03B"/>
<path d="M31.1735 43H42.8265C43.4725 43 44 43.1946 44 43.4351V65.3912C44 65.727 43.2638 66 42.3583 66H31.6417C30.7362 66 30 65.727 30 65.3912V43.4351C30 43.1956 30.5247 43 31.1735 43Z" fill="#FBB03B"/>
</svg>
