<svg width="73" height="94" viewBox="0 0 73 94" fill="none" xmlns="http://www.w3.org/2000/svg">
<path d="M69.1831 60.7254V88.7681C69.1831 91.537 66.5602 93.8021 63.3538 93.8021H9.6467C6.4403 93.8021 3.81738 91.537 3.81738 88.7681V60.7254C3.81738 60.0921 3.95371 59.4869 4.20455 58.9266C5.04705 57.0382 7.17374 55.6914 9.6467 55.6914H63.3511C65.824 55.6914 67.9507 57.0406 68.7932 58.9266C69.0441 59.4869 69.1804 60.0921 69.1804 60.7254H69.1831Z" fill="#EF5C22"/>
<path d="M69.1831 60.7247V66.6558H3.81738V60.7247C3.81738 60.0913 3.95371 59.4862 4.20455 58.9258H68.7959C69.0468 59.4862 69.1831 60.0913 69.1831 60.7247Z" fill="#C94111"/>
<path d="M62.5765 44H10.4235C4.66676 44 0 48.1486 0 53.2661V53.7339C0 58.8514 4.66676 63 10.4235 63H62.5765C68.3332 63 73 58.8514 73 53.7339V53.2661C73 48.1486 68.3332 44 62.5765 44Z" fill="#EF5C22"/>
<path d="M63.0594 37.5613C62.0861 34.7405 61.0582 31.8797 58.9642 29.3627C57.7073 27.8511 55.965 26.429 53.612 25.8144C49.9203 24.8514 45.716 26.1558 43.0195 28.1219C38.0218 31.7667 31.5026 44.1304 40.462 46.5203C45.8305 47.9519 51.9298 47.9872 57.2928 46.6145C59.6349 46.0164 61.9606 45.0723 63.0758 43.5253C64.3818 41.7147 63.7411 39.5391 63.0594 37.5589V37.5613ZM45.2907 42.6141C44.4209 42.4422 43.5103 42.1526 42.9486 41.6864C42.7468 41.5192 42.5914 41.3285 42.4987 41.1143C42.2124 40.4503 42.6187 39.751 43.0549 39.1341C44.6418 36.8926 47.2456 33.535 50.5638 36.7489C51.6544 37.8061 52.6605 38.9905 52.6986 40.2831C52.7941 43.3793 48.4044 43.231 45.2907 42.6165V42.6141Z" fill="#FBB03B"/>
<path d="M9.8076 42.586C10.8464 44.173 13.1231 45.2019 15.4324 45.8847C20.7219 47.4505 26.8211 47.6412 32.2524 46.4075C41.3208 44.3496 35.4151 31.7551 30.6028 27.9313C28.0072 25.8664 23.871 24.4089 20.1357 25.2354C17.7527 25.7628 15.945 27.119 14.6117 28.5835C12.3951 31.0228 11.2281 33.8412 10.1157 36.6243C9.33591 38.5786 8.58884 40.7283 9.80488 42.5837L9.8076 42.586ZM20.3347 39.7205C20.4383 38.4302 21.5017 37.2836 22.6414 36.2688C26.115 33.1796 28.5525 36.629 30.0275 38.9271C30.4338 39.5604 30.8046 40.2739 30.4856 40.9261C30.382 41.138 30.2184 41.3216 30.0084 41.4817C29.425 41.9268 28.5007 42.1834 27.6227 42.3223C24.4818 42.8215 20.0866 42.8074 20.3347 39.7182V39.7205Z" fill="#FBB03B"/>
<path d="M31.1735 63H42.8265C43.4725 63 44 63.2622 44 63.5865V93.1795C44 93.632 43.2638 94 42.3583 94H31.6417C30.7362 94 30 93.632 30 93.1795V63.5865C30 63.2636 30.5247 63 31.1735 63Z" fill="#FBB03B"/>
<path d="M31.1735 42H42.8265C43.4725 42 44 42.1946 44 42.4351V64.3912C44 64.727 43.2638 65 42.3583 65H31.6417C30.7362 65 30 64.727 30 64.3912V42.4351C30 42.1956 30.5247 42 31.1735 42Z" fill="#FBB03B"/>
</svg>
