<svg width="73" height="95" viewBox="0 0 73 95" fill="none" xmlns="http://www.w3.org/2000/svg">
<path d="M69.1831 56.4205V88.9338C69.1831 92.1441 66.5602 94.7703 63.3538 94.7703H9.6467C6.4403 94.7703 3.81738 92.1441 3.81738 88.9338V56.4205C3.81738 55.6862 3.95371 54.9846 4.20455 54.3349C5.04705 52.1455 7.17374 50.584 9.6467 50.584H63.3511C65.824 50.584 67.9507 52.1482 68.7932 54.3349C69.0441 54.9846 69.1804 55.6862 69.1804 56.4205H69.1831Z" fill="#EF5C22"/>
<path d="M69.1831 56.4196V63.2963H3.81738V56.4196C3.81738 55.6853 3.95371 54.9837 4.20455 54.334H68.7959C69.0468 54.9837 69.1831 55.6853 69.1831 56.4196Z" fill="#C94111"/>
<path d="M62.5765 37H10.4235C4.66676 37 0 41.8036 0 47.7292V48.2708C0 54.1964 4.66676 59 10.4235 59H62.5765C68.3332 59 73 54.1964 73 48.2708V47.7292C73 41.8036 68.3332 37 62.5765 37Z" fill="#EF5C22"/>
<path d="M63.0594 29.5637C62.0861 26.2933 61.0582 22.9765 58.9642 20.0582C57.7073 18.3056 55.965 16.6567 53.612 15.9442C49.9203 14.8277 45.716 16.3401 43.0195 18.6195C38.0218 22.8454 31.5026 37.1802 40.462 39.951C45.8305 41.6108 51.9298 41.6518 57.2928 40.0602C59.6349 39.3668 61.9606 38.2722 63.0758 36.4786C64.3818 34.3793 63.7411 31.8569 63.0594 29.561V29.5637ZM45.2907 35.4221C44.4209 35.2228 43.5103 34.8871 42.9486 34.3465C42.7468 34.1527 42.5914 33.9316 42.4987 33.6832C42.2124 32.9133 42.6187 32.1026 43.0549 31.3873C44.6418 28.7884 47.2456 24.8956 50.5638 28.6219C51.6544 29.8477 52.6605 31.2208 52.6986 32.7195C52.7941 36.3094 48.4044 36.1374 45.2907 35.4249V35.4221Z" fill="#FBB03B"/>
<path d="M9.8076 35.3896C10.8464 37.2296 13.1231 38.4225 15.4324 39.2142C20.7219 41.0296 26.8211 41.2507 32.2524 39.8202C41.3208 37.4343 35.4151 22.832 30.6028 18.3986C28.0072 16.0045 23.871 14.3147 20.1357 15.2729C17.7527 15.8844 15.945 17.4568 14.6117 19.1548C12.3951 21.983 11.2281 25.2507 10.1157 28.4775C9.33591 30.7433 8.58884 33.2357 9.80488 35.3869L9.8076 35.3896ZM20.3347 32.0673C20.4383 30.5713 21.5017 29.2418 22.6414 28.0652C26.115 24.4836 28.5525 28.4829 30.0275 31.1473C30.4338 31.8817 30.8046 32.7088 30.4856 33.465C30.382 33.7107 30.2184 33.9236 30.0084 34.1093C29.425 34.6252 28.5007 34.9228 27.6227 35.0838C24.4818 35.6626 20.0866 35.6462 20.3347 32.0646V32.0673Z" fill="#FBB03B"/>
<path d="M31.1735 63H42.8265C43.4725 63 44 63.2707 44 63.6054V94.153C44 94.6202 43.2638 95 42.3583 95H31.6417C30.7362 95 30 94.6202 30 94.153V63.6054C30 63.2721 30.5247 63 31.1735 63Z" fill="#FBB03B"/>
<path d="M31.1735 35H42.8265C43.4725 35 44 35.203 44 35.454V58.3648C44 58.7151 43.2638 59 42.3583 59H31.6417C30.7362 59 30 58.7151 30 58.3648V35.454C30 35.2041 30.5247 35 31.1735 35Z" fill="#FBB03B"/>
</svg>
