<svg width="24" height="24" viewBox="0 0 24 24" fill="none" xmlns="http://www.w3.org/2000/svg">
<g clip-path="url(#clip0_600_30012)">
<path d="M8.36063 0.789921C5.96265 1.6218 3.89465 3.20073 2.46036 5.2948C1.02607 7.38887 0.30111 9.88769 0.391955 12.4242C0.482801 14.9608 1.38467 17.4013 2.96508 19.3874C4.5455 21.3735 6.72116 22.8005 9.1725 23.4587C11.1599 23.9715 13.242 23.994 15.24 23.5243C17.05 23.1177 18.7233 22.2481 20.0963 21.0005C21.5252 19.6624 22.5623 17.9602 23.0963 16.0768C23.6766 14.0287 23.7799 11.8748 23.3981 9.78055H12.2381V14.4099H18.7013C18.5721 15.1483 18.2953 15.853 17.8874 16.4819C17.4795 17.1107 16.949 17.6509 16.3275 18.0699C15.5383 18.592 14.6486 18.9432 13.7156 19.1012C12.7799 19.2752 11.8201 19.2752 10.8844 19.1012C9.93598 18.9051 9.03881 18.5137 8.25 17.9518C6.98278 17.0548 6.03127 15.7804 5.53125 14.3105C5.02278 12.8132 5.02278 11.1898 5.53125 9.69242C5.88718 8.64283 6.47556 7.68717 7.2525 6.8968C8.14161 5.9757 9.26725 5.31729 10.5059 4.99381C11.7446 4.67034 13.0484 4.69429 14.2744 5.06305C15.2321 5.35703 16.1078 5.87068 16.8319 6.56305C17.5606 5.83805 18.2881 5.11117 19.0144 4.38242C19.3894 3.99055 19.7981 3.61742 20.1675 3.21617C19.0623 2.18769 17.765 1.3874 16.35 0.861171C13.7732 -0.0744733 10.9537 -0.0996178 8.36063 0.789921Z" fill="white"/>
<path d="M8.36063 0.790832C10.9535 -0.0993112 13.773 -0.0748285 16.35 0.860207C17.7653 1.39001 19.062 2.19415 20.1656 3.22646C19.7906 3.62771 19.395 4.00271 19.0125 4.39271C18.285 5.11896 17.5581 5.84271 16.8319 6.56396C16.1078 5.87159 15.2321 5.35794 14.2744 5.06396C13.0488 4.69391 11.745 4.66857 10.506 4.99072C9.26704 5.31288 8.14071 5.97007 7.25063 6.89021C6.47369 7.68059 5.8853 8.63624 5.52938 9.68583L1.6425 6.67646C3.03377 3.91751 5.44266 1.80713 8.36063 0.790832Z" fill="#E33629"/>
<path d="M0.611248 9.65703C0.820163 8.62164 1.16701 7.61896 1.6425 6.67578L5.52937 9.69266C5.0209 11.19 5.0209 12.8134 5.52937 14.3108C4.23437 15.3108 2.93875 16.3158 1.6425 17.3258C0.452156 14.9564 0.0891221 12.2567 0.611248 9.65703Z" fill="#F8BD00"/>
<path d="M12.2381 9.77734H23.3981C23.7799 11.8716 23.6766 14.0255 23.0962 16.0736C22.5623 17.957 21.5251 19.6592 20.0962 20.9973C18.8419 20.0186 17.5819 19.0473 16.3275 18.0686C16.9494 17.6491 17.4802 17.1084 17.8881 16.4788C18.296 15.8493 18.5725 15.1439 18.7012 14.4048H12.2381C12.2362 12.8636 12.2381 11.3205 12.2381 9.77734Z" fill="#587DBD"/>
<path d="M1.64062 17.3236C2.93687 16.3236 4.2325 15.3186 5.5275 14.3086C6.02851 15.779 6.98138 17.0534 8.25 17.9498C9.04127 18.5091 9.94037 18.8973 10.89 19.0898C11.8257 19.2638 12.7855 19.2638 13.7213 19.0898C14.6542 18.9319 15.5439 18.5806 16.3331 18.0586C17.5875 19.0373 18.8475 20.0086 20.1019 20.9873C18.7292 22.2356 17.0558 23.1059 15.2456 23.513C13.2476 23.9827 11.1655 23.9601 9.17813 23.4473C7.60632 23.0277 6.13814 22.2878 4.86563 21.2742C3.51874 20.2049 2.41867 18.8573 1.64062 17.3236Z" fill="#319F43"/>
</g>
<defs>
<clipPath id="clip0_600_30012">
<rect width="24" height="24" fill="white"/>
</clipPath>
</defs>
</svg>
