<svg width="108" height="60" viewBox="0 0 108 60" fill="none" xmlns="http://www.w3.org/2000/svg">
<path d="M32.8325 5.85981C33.5243 5.85981 34.0851 4.68861 34.0851 3.24387C34.0851 1.79913 33.5243 0.62793 32.8325 0.62793C32.1408 0.62793 31.58 1.79913 31.58 3.24387C31.58 4.68861 32.1408 5.85981 32.8325 5.85981Z" fill="#446175"/>
<path d="M24.8908 40.7522L18.1394 58.9455C17.8311 59.783 16.8983 60.21 16.0638 59.898L12.6946 58.6467C11.8585 58.3347 11.4322 57.4019 11.7437 56.5644L12.4913 54.5479L16.1195 44.7656L18.4935 38.3711L24.8924 40.7522H24.8908Z" fill="#21323D"/>
<path d="M53.5705 0.62793H32.8063V5.98461H53.5705V0.62793Z" fill="#2D4454"/>
<path d="M41.0283 3.23584V9.71247H42.0661V6.91425H45.0205V9.71247H46.0583V3.23584H41.0283Z" fill="#21323D"/>
<path d="M63.3599 49.5357C63.7058 49.7426 63.5632 50.8987 62.9402 51.6344C62.1417 52.5786 60.6957 52.6623 60.4858 52.2945C60.1399 51.6885 62.7336 49.1613 63.3599 49.5357Z" fill="#B8341F"/>
<path d="M6.66454 17.0265H1.83459V15.9082H5.54805C6.1645 15.9082 6.66454 16.4091 6.66454 17.0265Z" fill="#21323D"/>
<path d="M97.3843 20.8657H72.1672V43.8525H97.3843V20.8657Z" fill="#BBCCD9"/>
<path d="M96.6268 30.4673H72.1672V31.1225H96.6268V30.4673Z" fill="#93ADC2"/>
<path d="M39.1921 25.063C39.7643 26.045 40.3889 27.3029 40.9086 28.8202C41.4415 30.3786 41.7185 31.7892 41.8661 32.9371C42.2514 32.8566 42.6383 32.7778 43.0236 32.6973C43.1957 32.3377 43.3695 31.9781 43.5416 31.6184H45.3385C45.3648 29.4738 45.391 27.3275 45.4172 25.1829C43.3416 25.1435 41.266 25.1024 39.1904 25.063H39.1921Z" fill="#E64B33"/>
<path d="M46.1157 25.063H42.8843V30.5264H46.1157V25.063Z" fill="#B8341F"/>
<path d="M68.4488 38.2349C67.8586 38.7505 67.0487 39.3236 65.9945 39.7341C62.6532 41.038 59.507 39.6947 58.6906 39.3138C58.9299 40.4123 59.1693 41.5126 59.4086 42.6112C61.0252 43.6113 62.6417 44.6097 64.2583 45.6097C65.8355 44.2106 67.411 42.8115 68.9882 41.4124L68.4488 38.2349Z" fill="#21323D"/>
<path d="M64.2048 43.9844L50.14 29.3657L43.8749 35.413L57.9397 50.0317L64.2048 43.9844Z" fill="#21323D"/>
<path d="M63.9287 15.3516H84.6175C85.0995 15.3516 85.4913 15.744 85.4913 16.2268V17.91C85.4913 18.3928 85.0995 18.7853 84.6175 18.7853H63.9287V15.3516Z" fill="#BBCCD9"/>
<path d="M24.0267 19.1071V37.376H51.6456V21.9447L53.9606 19.7853L24.0267 19.1055V19.1071ZM44.7007 33.2673C44.7007 33.512 44.6024 33.7452 44.427 33.916L43.9253 34.4037C43.7564 34.5679 43.5318 34.6582 43.2973 34.6582H32.1275C31.4438 34.6582 30.8897 34.1032 30.8897 33.4184V31.2064C30.8897 30.9076 31.0077 30.6202 31.2176 30.4067L35.2868 26.2652C35.6409 25.9056 36.1246 25.702 36.6295 25.702H44.063C44.4155 25.702 44.7007 25.9877 44.7007 26.3424V33.2673Z" fill="#21323D"/>
<path d="M29.4551 21.5454H23.23V37.333H29.4551V21.5454Z" fill="#93ADC2"/>
<path d="M40.3102 9.7124H48.8519V11.5516H38.4756C38.4756 10.5368 39.2986 9.7124 40.3118 9.7124H40.3102Z" fill="#2D4454"/>
<path d="M47.8142 8.67285H48.6684C49.3422 8.67285 49.8898 9.22133 49.8898 9.89625V11.5515H47.8142V8.67285Z" fill="#21323D"/>
<path d="M32.3275 0.167969H35.3557C35.6229 0.167969 35.8393 0.384732 35.8393 0.652402V5.95982C35.8393 6.22749 35.6229 6.44425 35.3557 6.44425H32.3275V0.167969Z" fill="#21323D"/>
<path d="M55.3247 6.57408L53.5704 5.98455V0.627872L55.3247 0.0383411C55.792 -0.119305 56.2756 0.22883 56.2756 0.723116V5.88931C56.2756 6.3836 55.792 6.73173 55.3247 6.57408Z" fill="#E64B33"/>
<path d="M39.8315 0.62793H45.0205V1.03847C45.0205 1.44736 44.6894 1.77743 44.2828 1.77743H40.571C40.1627 1.77743 39.8332 1.44572 39.8332 1.03847V0.62793H39.8315Z" fill="#21323D"/>
<path d="M49.2308 0.62793H48.8521V5.98461H49.2308V0.62793Z" fill="#BBCCD9"/>
<path d="M8.77946 14.5088H24.5842V40.7339H7.02356V16.2675C7.02356 15.297 7.81052 14.5088 8.77946 14.5088Z" fill="#446175"/>
<path d="M8.82051 21.9446H7.02527V19.7852H8.82051C9.41565 19.7852 9.89766 20.2679 9.89766 20.864C9.89766 21.4601 9.41565 21.9429 8.82051 21.9429V21.9446Z" fill="#2D4454"/>
<path d="M8.82051 28.4641H7.02527V26.3047H8.82051C9.41565 26.3047 9.89766 26.7875 9.89766 27.3836C9.89766 27.9797 9.41565 28.4625 8.82051 28.4625V28.4641Z" fill="#2D4454"/>
<path d="M7.02356 32.8239H8.81881C9.41394 32.8239 9.89595 33.3083 9.89595 33.9028C9.89595 34.4989 9.4123 34.9817 8.81881 34.9817H7.02356V32.8223V32.8239Z" fill="#2D4454"/>
<path d="M7.02359 16.7554V38.9736H0.916477C0.408234 38.9736 0 38.5631 0 38.0557V17.6766C0 17.1675 0.409873 16.7554 0.916477 16.7554H7.02359Z" fill="#BBCCD9"/>
<path d="M2.59531 31.8286H1.59358L1.59358 18.4862H3.44949C3.95609 18.4862 4.36597 18.8984 4.36597 19.4041L4.36597 30.0535C4.36597 31.0338 3.57245 31.8286 2.59367 31.8286H2.59531Z" fill="#446175"/>
<path d="M5.02836 16.2285H2.31335L3.03309 13.1807H5.02836V16.2285Z" fill="#21323D"/>
<path d="M1.59517 16.7554V38.9736H0.918064C0.409821 38.9736 0.00158691 38.5631 0.00158691 38.0557V17.6766C0.00158691 17.1675 0.41146 16.7554 0.918064 16.7554H1.59517Z" fill="#93ADC2"/>
<path d="M62.8205 13.7896H32.5669V20.345H62.8205V13.7896Z" fill="#BBCCD9"/>
<path d="M53.2818 13.6763C52.5703 15.4958 51.8588 17.3136 51.1472 19.1331C55.0394 19.3499 58.9299 19.5683 62.8221 19.7851V20.345H46.1189C48.5076 18.1216 50.8947 15.8997 53.2835 13.6763H53.2818Z" fill="#93ADC2"/>
<path d="M67.1716 15.0293H64.2976V19.1067H67.1716V15.0293Z" fill="#446175"/>
<path d="M84.6438 15.0293H77.9382V19.1067H84.6438V15.0293Z" fill="#446175"/>
<path d="M84.0241 19.1069H78.5564V21.5455H84.0241V19.1069Z" fill="#2D4454"/>
<path d="M84.0241 15.0296H78.5564C78.5564 14.6765 78.8417 14.3892 79.1958 14.3892H83.3863C83.7388 14.3892 84.0257 14.6749 84.0257 15.0296H84.0241Z" fill="#2D4454"/>
<path d="M56.5511 50.674L68.3814 39.5388L71.3073 42.6574L60.5569 52.776C59.9607 53.3372 59.0222 53.3079 58.4619 52.7108L56.5499 50.6729L56.5511 50.674Z" fill="#2D4454"/>
<path d="M72.1673 43.8523H68.0898V25.9973C68.0898 24.8592 68.6014 23.782 69.4801 23.0627L72.1673 20.8672V43.854V43.8523Z" fill="#2D4454"/>
<path d="M98.3417 19.9463H105.526V46.8906H100.337C98.7074 46.8906 97.3843 45.5654 97.3843 43.9331V20.9069C97.3843 20.3782 97.8138 19.9479 98.3417 19.9479V19.9463Z" fill="#446175"/>
<path d="M93.233 43.8524H76.0708L76.8889 41.4877C77.2594 40.417 78.2661 39.6978 79.399 39.6978H89.9065C91.0377 39.6978 92.046 40.4154 92.4166 41.4877L93.2347 43.8524H93.233Z" fill="#446175"/>
<path d="M18.3345 47.0578L15.5883 54.2816C15.3227 54.9778 14.5423 55.3276 13.8472 55.0632L12.4913 54.5459L16.1195 44.7637L17.5541 45.3121C18.2509 45.5782 18.6001 46.3582 18.3345 47.0561V47.0578Z" fill="#E64B33"/>
<path d="M105.526 46.8906V19.9463C106.893 19.9463 108 21.0564 108 22.4243V44.411C108 45.7805 106.892 46.889 105.526 46.889V46.8906Z" fill="#21323D"/>
<path d="M53.4147 14.1132L48.7618 22.14C48.3733 22.81 47.6568 23.2238 46.883 23.2238H21.3151C20.8937 23.2238 20.4773 23.1302 20.0969 22.9496L15.2653 20.6572C14.8342 20.4535 14.4636 20.1432 14.1849 19.7556L10.7403 14.9507C10.3649 14.4269 10.2829 13.7487 10.5223 13.1509L11.3683 11.0309C11.5798 10.5005 12.1421 10.1983 12.7012 10.3149L18.6001 11.5515H51.5178C51.8064 11.5515 52.0851 11.6598 52.2966 11.8553L53.1967 12.6829C53.5967 13.0491 53.6869 13.6452 53.4147 14.1149V14.1132Z" fill="#2D4454"/>
<path d="M39.7824 16.2281H23.8416C23.0808 16.2281 22.3906 15.7864 22.0709 15.095L20.4347 11.5513H43.1892L41.553 15.095C41.2333 15.7864 40.5431 16.2281 39.7824 16.2281Z" fill="#21323D"/>
<path d="M37.2379 16.9148C37.2625 17.148 35.4738 17.1184 34.8426 18.2745C34.4524 18.9888 34.7147 19.7738 34.4835 19.8329C34.2376 19.8953 34.0195 18.9872 33.2867 18.2335C32.1144 17.0298 30.4668 17.0889 30.493 16.8738C30.5143 16.698 31.6078 16.7112 33.367 16.7145C35.7131 16.7178 37.2165 16.7013 37.2379 16.9148Z" fill="#446175"/>
<path d="M34.4834 20.9529C34.6982 20.9381 34.7343 21.5112 35.2015 21.9924C35.8426 22.6525 36.7705 22.6 36.7574 22.7117C36.7459 22.8184 35.9131 22.7773 34.7212 22.7921C33.4489 22.8069 32.5849 22.8742 32.5652 22.7527C32.5472 22.6328 33.3964 22.6378 33.9227 21.9924C34.3195 21.5063 34.2736 20.9677 34.4818 20.9529H34.4834Z" fill="#446175"/>
<path d="M52.4638 14.6356C52.577 14.744 51.99 15.4156 51.326 16.4945C50.4194 17.9691 50.0702 19.0694 49.8898 19.0136C49.7111 18.9594 50.2079 17.9281 49.7702 16.8541C49.3324 15.7785 48.2389 15.3466 48.334 15.1759C48.434 14.9952 49.4931 15.7752 50.7293 15.5355C51.7703 15.3335 52.3474 14.5206 52.4655 14.6356H52.4638Z" fill="#446175"/>
<path d="M45.2501 14.0067C45.2058 14.1101 44.168 13.4598 43.245 13.826C42.7302 14.0297 42.4679 14.4648 42.3777 14.3959C42.2957 14.3351 42.5121 13.9886 42.8269 13.2562C43.2204 12.3415 43.2909 11.931 43.4548 11.9376C43.6319 11.9441 43.6057 12.4237 43.9631 12.9574C44.4631 13.7012 45.2878 13.9196 45.2501 14.0067Z" fill="#446175"/>
<path d="M47.3158 14.8162C47.3535 14.7522 47.06 14.4533 46.6879 14.3367C46.4534 14.2628 46.1354 14.2431 46.119 14.3071C46.0862 14.4336 47.2502 14.9295 47.3158 14.8162Z" fill="#446175"/>
<path d="M64.0746 20.0281L62.8204 20.345V13.7896L64.0746 14.1065C64.6403 14.2494 65.0354 14.7584 65.0354 15.343V18.7932C65.0354 19.3778 64.6386 19.8868 64.0746 20.0297V20.0281Z" fill="#2D4454"/>
<path d="M76.5513 20.3452H85.4914V23.9826C85.4914 24.5787 85.0078 25.0615 84.4143 25.0615H77.6284C77.0333 25.0615 76.5513 24.577 76.5513 23.9826V20.3452Z" fill="#446175"/>
<path d="M53.0966 31.676L51.0293 33.2278C50.6112 33.5415 50.0193 33.4561 49.7078 33.039C49.3947 32.6202 49.4799 32.0274 49.8964 31.7154L51.9638 30.1636L53.0966 31.6776V31.676Z" fill="#446175"/>
<path d="M61.3039 39.7502L59.9186 41.9342C59.6382 42.3743 59.0546 42.5057 58.6152 42.2249C58.1758 41.9441 58.0446 41.3595 58.325 40.9194L59.7104 38.7354L61.3039 39.7502Z" fill="#446175"/>
<path d="M99.3418 24.2305H96.6661C96.0712 24.2305 95.589 24.7135 95.589 25.3094V26.7167C95.589 27.3125 96.0712 27.7956 96.6661 27.7956H99.3418C99.9367 27.7956 100.419 27.3125 100.419 26.7167V25.3094C100.419 24.7135 99.9367 24.2305 99.3418 24.2305Z" fill="#2D4454"/>
<path d="M99.3418 29.2671H96.6661C96.0712 29.2671 95.589 29.7501 95.589 30.346V31.7533C95.589 32.3492 96.0712 32.8322 96.6661 32.8322H99.3418C99.9367 32.8322 100.419 32.3492 100.419 31.7533V30.346C100.419 29.7501 99.9367 29.2671 99.3418 29.2671Z" fill="#2D4454"/>
<path d="M99.3418 34.3052H96.6661C96.0712 34.3052 95.589 34.7882 95.589 35.3841V36.7914C95.589 37.3872 96.0712 37.8703 96.6661 37.8703H99.3418C99.9367 37.8703 100.419 37.3872 100.419 36.7914V35.3841C100.419 34.7882 99.9367 34.3052 99.3418 34.3052Z" fill="#2D4454"/>
<path d="M105.526 39.5318C104.688 39.5318 104.01 38.8519 104.01 38.0128V24.7426C104.01 23.9035 104.688 23.2236 105.526 23.2236V39.5318Z" fill="#2D4454"/>
<path d="M99.2549 31.7893C99.7031 31.7893 100.066 31.4254 100.066 30.9764C100.066 30.5275 99.7031 30.1636 99.2549 30.1636C98.8067 30.1636 98.4434 30.5275 98.4434 30.9764C98.4434 31.4254 98.8067 31.7893 99.2549 31.7893Z" fill="#93ADC2"/>
<path d="M32.9505 36.4168C31.7094 36.4168 30.5766 35.7124 30.024 34.6006L30.0126 34.5793C28.9617 32.4543 29.1748 31.3016 28.096 30.5018C26.8713 29.5921 25.1466 30.0059 24.7432 30.1028C23.7251 30.3475 23.3562 30.7826 20.592 32.9815C19.287 34.0193 18.6345 34.5382 18.118 34.9011C18.1115 34.9061 18.1049 34.9094 18.0984 34.9143C16.6835 35.9029 14.9932 36.4201 13.2684 36.4201H6.75963C5.93005 36.4201 5.29556 37.1575 5.41689 37.9802L5.92513 41.4123C6.05137 42.2645 6.78259 42.8968 7.64332 42.8968H31.6275C32.4882 42.8968 33.2194 42.2645 33.3457 41.4123L33.9375 37.4071C34.0146 36.8865 33.6129 36.4201 33.0883 36.4201H32.9505V36.4168Z" fill="#2D4454"/>
<path d="M26.8402 25.3404C26.8402 25.8199 26.4516 26.2091 25.9729 26.2091C25.4941 26.2091 25.1056 25.8199 25.1056 25.3404C25.1056 24.8609 25.4941 24.4717 25.9729 24.4717C26.4516 24.4717 26.8402 24.8609 26.8402 25.3404Z" fill="#2D4454"/>
<path d="M56.5149 51.2554C56.4198 51.2045 56.3592 51.1306 56.3215 51.0353C56.2116 50.766 56.2526 50.3226 56.1149 49.7348C55.5066 47.132 52.6474 47.2403 50.1275 44.539C47.56 41.7884 48.1929 39.1741 45.6566 38.2217C45.3139 38.0919 44.9647 38.0131 44.6384 37.9524C43.899 37.8161 43.2973 37.7816 43.2613 37.5008C43.2236 37.1838 43.9613 36.9474 45.5762 36.0623C47.6764 34.9127 47.7699 34.5794 48.3716 34.5433C49.5192 34.471 50.4472 35.6107 52.2031 38.1412C56.0673 43.7163 57.0986 46.1762 59.2267 46.3749C60.3595 46.4833 61.0563 45.8757 61.3022 46.2173C61.9417 47.1008 57.7265 51.8925 56.5133 51.2537L56.5149 51.2554Z" fill="#E64B33"/>
<path d="M56.3215 51.0351C56.2116 50.7658 56.2526 50.3224 56.1149 49.7345C55.5066 47.1317 52.6474 47.2401 50.1275 44.5387C47.56 41.7882 48.1929 39.1739 45.6566 38.2214C45.3139 38.0917 44.9647 38.0129 44.6384 37.9521C45.568 37.2066 47.1354 36.9208 48.2896 37.3429C51.1193 38.3791 50.134 43.1971 53.8786 45.4173C55.2574 46.2384 56.2903 46.1136 56.8313 47.1777C57.397 48.2861 57.092 50.0202 56.3182 51.0351H56.3215Z" fill="#B8341F"/>
<path d="M3.07241 23.9907C2.74124 23.9907 2.474 23.723 2.474 23.3913V20.1135C2.474 19.7818 2.74124 19.5142 3.07241 19.5142C3.40359 19.5142 3.67083 19.7818 3.67083 20.1135V23.3913C3.67083 23.723 3.40359 23.9907 3.07241 23.9907Z" fill="#21323D"/>
<path d="M19.4756 23.5705C19.4215 23.7167 18.4328 23.1255 17.3196 23.4507C16.0277 23.8284 15.4293 25.193 15.2244 25.0698C15.0178 24.9467 15.9359 23.7495 15.5834 22.4916C15.3244 21.5671 14.5243 21.1237 14.6259 20.9924C14.7292 20.8594 15.5162 21.3536 16.8409 22.0713C18.5083 22.9761 19.5297 23.426 19.4756 23.5705Z" fill="#93ADC2"/>
<path d="M14.5079 26.329C14.6915 26.3996 14.6915 27.2486 14.2079 27.8283C13.9046 28.1912 13.3783 28.49 13.2504 28.3685C13.0012 28.1304 14.1997 26.2107 14.5079 26.329Z" fill="#93ADC2"/>
<path d="M29.4551 28.0088H24.5858V28.6459H29.4551V28.0088Z" fill="#2D4454"/>
<path d="M47.0158 24.4702H46.2567V26.5098H47.0158V24.4702Z" fill="#2D4454"/>
<path d="M47.8125 24.4702H47.5338V26.5098H47.8125V24.4702Z" fill="#2D4454"/>
<path d="M49.2307 24.4702H48.652V26.5098H49.2307V24.4702Z" fill="#2D4454"/>
<path d="M50.403 24.4702H49.5193V26.5098H50.403V24.4702Z" fill="#2D4454"/>
<path d="M14.5357 31.9189H13.7766V33.9585H14.5357V31.9189Z" fill="#2D4454"/>
<path d="M15.3325 31.9189H15.0538V33.9585H15.3325V31.9189Z" fill="#2D4454"/>
<path d="M16.7507 31.9189H16.172V33.9585H16.7507V31.9189Z" fill="#2D4454"/>
<path d="M17.923 31.9189H17.0393V33.9585H17.923V31.9189Z" fill="#2D4454"/>
<path d="M81.9797 35.0241H75.3905C74.4987 35.0241 73.7756 34.2999 73.7756 33.4066C73.7756 32.5132 74.4987 31.7891 75.3905 31.7891H81.9797C82.8715 31.7891 83.5946 32.5132 83.5946 33.4066C83.5946 34.2999 82.8715 35.0241 81.9797 35.0241Z" fill="#2D4454"/>
<path d="M76.2483 34.3271C76.7561 33.8185 76.756 32.994 76.2483 32.4854C75.7406 31.9769 74.9174 31.9769 74.4097 32.4854C73.902 32.994 73.902 33.8185 74.4097 34.3271C74.9174 34.8356 75.7406 34.8356 76.2483 34.3271Z" fill="#446175"/>
<path d="M39.7823 16.2285H24.5858C24.5858 15.744 24.9777 15.3516 25.4613 15.3516H38.9068C39.3904 15.3516 39.7823 15.744 39.7823 16.2285Z" fill="#BBCCD9"/>
<path d="M47.9404 21.5982C47.9404 22.1581 47.4879 22.6114 46.9288 22.6114C46.3697 22.6114 45.9172 22.1581 45.9172 21.5982C45.9172 21.0382 46.3697 20.585 46.9288 20.585C47.4879 20.585 47.9404 21.0382 47.9404 21.5982Z" fill="#446175"/>
<path d="M24.3367 42.2988C24.3072 42.5139 23.0841 42.4745 21.0446 42.4794C18.1017 42.4844 16.7196 42.5714 16.6737 42.2988C16.6311 42.0443 17.8541 42.0049 18.8886 40.9194C19.7969 39.967 19.7887 39.0178 20.2658 38.9997C20.779 38.9817 20.8331 40.0786 21.8824 41.0393C23.0235 42.0837 24.3678 42.0738 24.3367 42.2988Z" fill="#446175"/>
<path d="M19.8461 37.2017C20.1002 37.0195 19.8608 36.5892 20.0264 35.7632C20.1838 34.9701 20.556 34.6006 20.4461 34.5037C20.2986 34.374 19.6969 35.0883 18.5296 35.7025C17.4311 36.2805 16.5901 36.3692 16.613 36.5416C16.636 36.7124 17.4508 36.517 18.6493 36.9012C19.3264 37.118 19.6248 37.3594 19.8461 37.2017Z" fill="#446175"/>
<path d="M12.1224 11.4166C12.2797 11.4511 12.224 11.7746 12.4224 12.1966C12.8044 13.0111 13.6799 13.2344 13.6192 13.3954C13.5536 13.5694 12.6109 13.0916 11.7633 13.5152C11.3288 13.7336 11.1698 14.0621 11.0452 13.9947C10.8517 13.8913 11.1059 13.0456 11.3452 12.4955C11.4157 12.3329 11.8404 11.3525 12.124 11.4166H12.1224Z" fill="#446175"/>
<path d="M16.3736 14.2952C16.4179 14.2066 15.99 13.8551 15.5358 13.6959C15.0883 13.5382 14.539 13.5399 14.5177 13.6351C14.4784 13.8174 16.29 14.4611 16.3736 14.2952Z" fill="#446175"/>
<path d="M3.07241 20.657C3.31235 20.657 3.50687 20.4621 3.50687 20.2218C3.50687 19.9815 3.31235 19.7866 3.07241 19.7866C2.83246 19.7866 2.63794 19.9815 2.63794 20.2218C2.63794 20.4621 2.83246 20.657 3.07241 20.657Z" fill="#E64B33"/>
</svg>
