<svg width="650" height="360" viewBox="0 0 650 360" fill="none" xmlns="http://www.w3.org/2000/svg">
<path d="M451.735 35.1589C447.577 35.1589 444.207 28.1317 444.207 19.4632C444.207 10.7948 447.577 3.76758 451.735 3.76758C455.892 3.76758 459.262 10.7948 459.262 19.4632C459.262 28.1317 455.892 35.1589 451.735 35.1589Z" fill="#446175"/>
<path d="M499.462 244.513L540.036 353.673C541.889 358.698 547.495 361.26 552.51 359.388L572.758 351.88C577.783 350.008 580.344 344.412 578.472 339.387L573.979 327.287L552.175 268.594L537.908 230.227L499.452 244.513H499.462Z" fill="#21323D"/>
<path d="M327.106 3.76758H451.893V35.9077H327.106V3.76758Z" fill="#2D4454"/>
<path d="M402.48 19.4141V58.2738H396.243V41.4845H378.488V58.2738H372.252V19.4141H402.48Z" fill="#21323D"/>
<path d="M268.274 297.216C266.195 298.458 267.052 305.394 270.797 309.808C275.595 315.474 284.285 315.976 285.546 313.769C287.625 310.133 272.038 294.97 268.274 297.216Z" fill="#B8341F"/>
<path d="M608.997 102.159H638.023V95.4492H615.706C612.002 95.4492 608.997 98.4543 608.997 102.159Z" fill="#21323D"/>
<path d="M63.7973 125.193H215.344V263.114H63.7973V125.193Z" fill="#BBCCD9"/>
<path d="M68.3494 182.805H215.344V186.736H68.3494V182.805Z" fill="#93ADC2"/>
<path d="M413.516 150.379C410.077 156.271 406.323 163.818 403.2 172.922C399.997 182.273 398.332 190.736 397.445 197.623C395.13 197.141 392.805 196.668 390.489 196.185C389.455 194.027 388.41 191.869 387.376 189.712H376.577C376.419 176.844 376.262 163.966 376.104 151.098C388.578 150.862 401.052 150.615 413.525 150.379H413.516Z" fill="#E64B33"/>
<path d="M371.907 150.379H391.327V183.159H371.907V150.379Z" fill="#B8341F"/>
<path d="M237.691 229.408C241.238 232.502 246.105 235.941 252.441 238.404C272.521 246.227 291.428 238.167 296.335 235.882C294.897 242.473 293.458 249.075 292.02 255.666C282.305 261.667 272.59 267.657 262.875 273.657C253.396 265.263 243.928 256.868 234.449 248.474L237.691 229.408Z" fill="#21323D"/>
<path d="M263.197 263.906L347.722 176.193L385.374 212.477L300.848 300.189L263.197 263.906Z" fill="#21323D"/>
<path d="M264.855 92.1074H140.522C137.625 92.1074 135.27 94.4623 135.27 97.359V107.458C135.27 110.355 137.625 112.71 140.522 112.71H264.855V92.1074Z" fill="#BBCCD9"/>
<path d="M504.655 114.641V224.254H338.673V131.666L324.761 118.71L504.655 114.631V114.641ZM380.41 199.602C380.41 201.07 381.001 202.469 382.055 203.494L385.07 206.42C386.085 207.406 387.435 207.948 388.844 207.948H455.971C460.08 207.948 463.41 204.617 463.41 200.509V187.237C463.41 185.444 462.701 183.719 461.44 182.438L436.985 157.589C434.857 155.432 431.95 154.21 428.915 154.21H384.242C382.124 154.21 380.41 155.924 380.41 158.053V199.602Z" fill="#21323D"/>
<path d="M472.032 129.273H509.443V223.999H472.032V129.273Z" fill="#93ADC2"/>
<path d="M406.796 58.2734H355.462V69.3087H417.821C417.821 63.2196 412.875 58.2734 406.786 58.2734H406.796Z" fill="#2D4454"/>
<path d="M361.699 52.0371H356.566C352.516 52.0371 349.225 55.328 349.225 59.3775V69.3092H361.699V52.0371Z" fill="#21323D"/>
<path d="M454.77 1.00781H436.571C434.965 1.00781 433.665 2.30839 433.665 3.91441V35.7589C433.665 37.3649 434.965 38.6655 436.571 38.6655H454.77V1.00781Z" fill="#21323D"/>
<path d="M316.563 39.4445L327.106 35.9073V3.76723L316.563 0.230047C313.755 -0.71583 310.848 1.37298 310.848 4.3387V35.3359C310.848 38.3016 313.755 40.3904 316.563 39.4445Z" fill="#E64B33"/>
<path d="M409.673 3.76758H378.488V6.2308C378.488 8.68417 380.479 10.6646 382.922 10.6646H405.229C407.683 10.6646 409.663 8.67431 409.663 6.2308V3.76758H409.673Z" fill="#21323D"/>
<path d="M353.186 3.76758H355.462V35.9077H353.186V3.76758Z" fill="#BBCCD9"/>
<path d="M596.286 87.0527H501.305V244.403H606.839V97.6052C606.839 91.7821 602.109 87.0527 596.286 87.0527Z" fill="#446175"/>
<path d="M596.04 131.667H606.829V118.711H596.04C592.464 118.711 589.567 121.608 589.567 125.184C589.567 128.761 592.464 131.658 596.04 131.658V131.667Z" fill="#2D4454"/>
<path d="M596.04 170.783H606.829V157.826H596.04C592.464 157.826 589.567 160.723 589.567 164.3C589.567 167.876 592.464 170.773 596.04 170.773V170.783Z" fill="#2D4454"/>
<path d="M606.839 196.943H596.05C592.473 196.943 589.577 199.85 589.577 203.417C589.577 206.993 592.483 209.89 596.05 209.89H606.839V196.934V196.943Z" fill="#2D4454"/>
<path d="M606.839 100.533V233.843H643.541C646.595 233.843 649.049 231.379 649.049 228.335V106.061C649.049 103.006 646.585 100.533 643.541 100.533H606.839Z" fill="#BBCCD9"/>
<path d="M633.451 190.973H639.472V110.918H628.318C625.274 110.918 622.81 113.391 622.81 116.426V180.322C622.81 186.204 627.579 190.973 633.461 190.973H633.451Z" fill="#446175"/>
<path d="M618.83 97.369H635.146L630.821 79.082H618.83V97.369Z" fill="#21323D"/>
<path d="M639.462 100.533V233.843H643.531C646.585 233.843 649.039 231.379 649.039 228.335V106.061C649.039 103.006 646.576 100.533 643.531 100.533H639.462Z" fill="#93ADC2"/>
<path d="M271.516 82.7383H453.331V122.071H271.516V82.7383Z" fill="#BBCCD9"/>
<path d="M328.84 82.0586C333.116 92.9756 337.392 103.883 341.668 114.8C318.278 116.1 294.897 117.411 271.506 118.711V122.071H371.887C357.532 108.73 343.186 95.3994 328.83 82.0586H328.84Z" fill="#93ADC2"/>
<path d="M245.366 90.1777H262.638V114.642H245.366V90.1777Z" fill="#446175"/>
<path d="M140.364 90.1777H180.662V114.642H140.364V90.1777Z" fill="#446175"/>
<path d="M144.088 114.643H176.948V129.274H144.088V114.643Z" fill="#2D4454"/>
<path d="M144.088 90.1766H176.948C176.948 88.0582 175.233 86.334 173.105 86.334H147.921C145.803 86.334 144.079 88.0484 144.079 90.1766H144.088Z" fill="#2D4454"/>
<path d="M309.193 304.042L238.096 237.231L220.513 255.942L285.119 316.654C288.702 320.021 294.343 319.846 297.71 316.263L309.2 304.035L309.193 304.042Z" fill="#2D4454"/>
<path d="M215.345 263.114H239.849V155.984C239.849 149.155 236.775 142.692 231.493 138.376L215.345 125.203V263.124V263.114Z" fill="#2D4454"/>
<path d="M58.0433 119.676H14.8679V281.342H46.0523C55.8461 281.342 63.7974 273.391 63.7974 263.597V125.44C63.7974 122.267 61.2159 119.686 58.0433 119.686V119.676Z" fill="#446175"/>
<path d="M88.7449 263.115H191.885L186.968 248.927C184.741 242.503 178.692 238.188 171.883 238.188H108.736C101.938 238.188 95.8783 242.493 93.6516 248.927L88.735 263.115H88.7449Z" fill="#446175"/>
<path d="M538.864 282.348L555.367 325.691C556.964 329.869 561.654 331.968 565.831 330.381L573.979 327.278L552.175 268.584L543.554 271.875C539.366 273.471 537.268 278.151 538.864 282.339V282.348Z" fill="#E64B33"/>
<path d="M14.8679 281.342V119.676C6.65061 119.676 -6.10352e-05 126.336 -6.10352e-05 134.544V266.464C-6.10352e-05 274.681 6.66046 281.332 14.8679 281.332V281.342Z" fill="#21323D"/>
<path d="M328.042 84.6793L356.004 132.84C358.339 136.86 362.645 139.343 367.296 139.343H520.951C523.483 139.343 525.986 138.781 528.272 137.698L557.308 123.943C559.9 122.721 562.126 120.859 563.801 118.534L584.502 89.7042C586.759 86.5612 587.251 82.4919 585.813 78.9055L580.729 66.1854C579.458 63.0029 576.078 61.19 572.718 61.8896L537.268 69.3088H339.441C337.707 69.3088 336.032 69.9591 334.761 71.1316L329.352 76.0974C326.948 78.2946 326.406 81.8712 328.042 84.6891V84.6793Z" fill="#2D4454"/>
<path d="M409.968 97.3696H505.768C510.34 97.3696 514.488 94.7192 516.409 90.5711L526.242 69.3086H389.494L399.327 90.5711C401.249 94.7192 405.397 97.3696 409.968 97.3696Z" fill="#21323D"/>
<path d="M425.26 101.489C425.112 102.888 435.862 102.711 439.655 109.647C442 113.933 440.424 118.643 441.813 118.997C443.291 119.372 444.601 113.923 449.005 109.401C456.05 102.179 465.952 102.533 465.795 101.243C465.667 100.188 459.095 100.267 448.523 100.287C434.423 100.307 425.388 100.208 425.26 101.489Z" fill="#446175"/>
<path d="M441.813 125.717C440.522 125.628 440.305 129.067 437.497 131.953C433.645 135.914 428.068 135.599 428.147 136.269C428.216 136.909 433.221 136.663 440.384 136.752C448.03 136.84 453.223 137.244 453.341 136.515C453.449 135.796 448.345 135.826 445.183 131.953C442.798 129.037 443.074 125.805 441.823 125.717H441.813Z" fill="#446175"/>
<path d="M333.756 87.8126C333.077 88.4629 336.604 92.4927 340.594 98.966C346.043 107.814 348.142 114.415 349.225 114.08C350.299 113.755 347.314 107.568 349.945 101.124C352.575 94.6702 359.147 92.0789 358.576 91.0542C357.975 89.9703 351.61 94.6505 344.181 93.2119C337.924 92 334.456 87.1229 333.747 87.8126H333.756Z" fill="#446175"/>
<path d="M377.109 84.0381C377.375 84.6589 383.612 80.7571 389.159 82.9543C392.253 84.1761 393.829 86.7871 394.371 86.3733C394.864 86.0087 393.563 83.9298 391.672 79.5354C389.307 74.0473 388.883 71.5841 387.898 71.6235C386.834 71.6629 386.991 74.54 384.843 77.7421C381.838 82.2055 376.882 83.5159 377.109 84.0381Z" fill="#446175"/>
<path d="M364.694 88.8952C364.468 88.511 366.231 86.7177 368.468 86.0182C369.877 85.5748 371.788 85.4566 371.887 85.8408C372.084 86.5995 365.089 89.5751 364.694 88.8952Z" fill="#446175"/>
<path d="M263.978 120.169L271.516 122.071V82.7383L263.978 84.6399C260.579 85.4971 258.205 88.5515 258.205 92.0591V112.76C258.205 116.268 260.589 119.322 263.978 120.179V120.169Z" fill="#2D4454"/>
<path d="M188.998 122.07H135.27V143.894C135.27 147.471 138.177 150.368 141.743 150.368H182.524C186.101 150.368 188.998 147.461 188.998 143.894V122.07Z" fill="#446175"/>
<path d="M329.953 190.055L342.378 199.366C344.89 201.248 348.447 200.736 350.319 198.233C352.201 195.72 351.689 192.164 349.186 190.291L336.762 180.98L329.953 190.065V190.055Z" fill="#446175"/>
<path d="M280.63 238.503L288.955 251.607C290.64 254.248 294.148 255.036 296.788 253.351C299.429 251.667 300.217 248.159 298.532 245.518L290.207 232.414L280.63 238.503Z" fill="#446175"/>
<path d="M52.0332 145.383H68.1131C71.6882 145.383 74.5864 148.281 74.5864 151.856V160.3C74.5864 163.875 71.6882 166.773 68.1131 166.773H52.0332C48.458 166.773 45.5598 163.875 45.5598 160.3V151.856C45.5598 148.281 48.458 145.383 52.0332 145.383Z" fill="#2D4454"/>
<path d="M52.0332 175.602H68.1131C71.6882 175.602 74.5864 178.5 74.5864 182.075V190.519C74.5864 194.094 71.6882 196.992 68.1131 196.992H52.0332C48.458 196.992 45.5598 194.094 45.5598 190.519V182.075C45.5598 178.5 48.458 175.602 52.0332 175.602Z" fill="#2D4454"/>
<path d="M52.0332 205.83H68.1131C71.6882 205.83 74.5864 208.728 74.5864 212.303V220.747C74.5864 224.322 71.6882 227.221 68.1131 227.221H52.0332C48.458 227.221 45.5598 224.322 45.5598 220.747V212.303C45.5598 208.728 48.458 205.83 52.0332 205.83Z" fill="#2D4454"/>
<path d="M14.868 237.193C19.9029 237.193 23.9819 233.114 23.9819 228.079V148.458C23.9819 143.423 19.9029 139.344 14.868 139.344V237.193Z" fill="#2D4454"/>
<path d="M52.5552 190.735C49.8616 190.735 47.6781 188.551 47.6781 185.858C47.6781 183.164 49.8616 180.98 52.5552 180.98C55.2488 180.98 57.4324 183.164 57.4324 185.858C57.4324 188.551 55.2488 190.735 52.5552 190.735Z" fill="#93ADC2"/>
<path d="M451.025 218.501C458.484 218.501 465.292 214.274 468.613 207.604L468.682 207.476C474.997 194.726 473.717 187.809 480.2 183.011C487.56 177.553 497.925 180.035 500.349 180.617C506.468 182.085 508.684 184.696 525.296 197.889C533.139 204.116 537.061 207.229 540.164 209.407C540.204 209.436 540.243 209.456 540.283 209.486C548.786 215.417 558.944 218.521 569.309 218.521H608.425C613.411 218.521 617.224 222.945 616.495 227.881L613.44 248.474C612.682 253.587 608.287 257.381 603.114 257.381H458.977C453.804 257.381 449.41 253.587 448.651 248.474L445.094 224.442C444.631 221.319 447.045 218.521 450.198 218.521H451.025V218.501Z" fill="#2D4454"/>
<path d="M487.747 152.042C487.747 154.919 490.082 157.254 492.959 157.254C495.836 157.254 498.171 154.919 498.171 152.042C498.171 149.165 495.836 146.83 492.959 146.83C490.082 146.83 487.747 149.165 487.747 152.042Z" fill="#2D4454"/>
<path d="M309.41 307.532C309.981 307.227 310.346 306.784 310.573 306.212C311.233 304.596 310.986 301.936 311.814 298.409C315.469 282.792 332.653 283.442 347.797 267.234C363.226 250.73 359.423 235.045 374.666 229.33C376.725 228.552 378.823 228.079 380.784 227.714C385.228 226.896 388.844 226.689 389.061 225.005C389.287 223.103 384.853 221.684 375.148 216.374C362.527 209.476 361.965 207.476 358.349 207.26C351.452 206.826 345.875 213.664 335.323 228.847C312.1 262.298 305.902 277.057 293.113 278.25C286.305 278.9 282.117 275.254 280.639 277.304C276.797 282.605 302.129 311.355 309.42 307.522L309.41 307.532Z" fill="#E64B33"/>
<path d="M310.573 306.211C311.233 304.596 310.986 301.935 311.814 298.408C315.469 282.791 332.653 283.441 347.797 267.233C363.226 250.73 359.423 235.044 374.666 229.329C376.725 228.551 378.823 228.078 380.784 227.714C375.198 223.24 365.778 221.526 358.842 224.058C341.836 230.275 347.757 259.184 325.253 272.505C316.967 277.431 310.76 276.682 307.508 283.067C304.109 289.718 305.942 300.122 310.592 306.211H310.573Z" fill="#B8341F"/>
<path d="M630.584 143.945C632.575 143.945 634.181 142.339 634.181 140.349V120.682C634.181 118.692 632.575 117.086 630.584 117.086C628.594 117.086 626.988 118.692 626.988 120.682V140.349C626.988 142.339 628.594 143.945 630.584 143.945Z" fill="#21323D"/>
<path d="M532.006 141.421C532.331 142.298 538.273 138.751 544.963 140.702C552.727 142.968 556.323 151.156 557.555 150.417C558.796 149.678 553.279 142.495 555.397 134.948C556.954 129.401 561.762 126.74 561.151 125.952C560.53 125.154 555.801 128.12 547.84 132.426C537.819 137.855 531.681 140.554 532.006 141.421Z" fill="#93ADC2"/>
<path d="M561.861 157.975C560.757 158.398 560.757 163.492 563.664 166.97C565.486 169.148 568.649 170.941 569.418 170.212C570.915 168.783 563.713 157.265 561.861 157.975Z" fill="#93ADC2"/>
<path d="M472.032 168.055H501.295V171.878H472.032V168.055Z" fill="#2D4454"/>
<path d="M366.497 146.82H371.059V159.058H366.497V146.82Z" fill="#2D4454"/>
<path d="M361.709 146.82H363.384V159.058H361.709V146.82Z" fill="#2D4454"/>
<path d="M353.186 146.82H356.664V159.058H353.186V146.82Z" fill="#2D4454"/>
<path d="M346.141 146.82H351.452V159.058H346.141V146.82Z" fill="#2D4454"/>
<path d="M561.693 191.514H566.255V203.751H561.693V191.514Z" fill="#2D4454"/>
<path d="M556.904 191.514H558.579V203.751H556.904V191.514Z" fill="#2D4454"/>
<path d="M548.382 191.514H551.86V203.751H548.382V191.514Z" fill="#2D4454"/>
<path d="M541.337 191.514H546.648V203.751H541.337V191.514Z" fill="#2D4454"/>
<path d="M156.375 210.146H195.974C201.334 210.146 205.679 205.801 205.679 200.441C205.679 195.081 201.334 190.736 195.974 190.736H156.375C151.015 190.736 146.67 195.081 146.67 200.441C146.67 205.801 151.015 210.146 156.375 210.146Z" fill="#2D4454"/>
<path d="M190.818 205.962C187.767 202.911 187.767 197.964 190.818 194.913C193.87 191.861 198.817 191.861 201.868 194.913C204.92 197.964 204.92 202.911 201.868 205.962C198.817 209.014 193.87 209.014 190.818 205.962Z" fill="#446175"/>
<path d="M409.968 97.3689H501.295C501.295 94.4623 498.94 92.1074 496.033 92.1074H415.23C412.323 92.1074 409.968 94.4623 409.968 97.3689Z" fill="#BBCCD9"/>
<path d="M360.94 129.589C360.94 132.949 363.66 135.668 367.02 135.668C370.379 135.668 373.099 132.949 373.099 129.589C373.099 126.229 370.379 123.51 367.02 123.51C363.66 123.51 360.94 126.229 360.94 129.589Z" fill="#446175"/>
<path d="M502.792 253.794C502.97 255.085 510.32 254.848 522.577 254.878C540.263 254.907 548.569 255.429 548.845 253.794C549.101 252.267 541.751 252.03 535.534 245.517C530.075 239.803 530.124 234.108 527.257 233.999C524.173 233.891 523.848 240.473 517.542 246.237C510.685 252.503 502.605 252.444 502.792 253.794Z" fill="#446175"/>
<path d="M529.78 223.21C528.252 222.117 529.691 219.535 528.696 214.579C527.75 209.82 525.513 207.603 526.173 207.022C527.06 206.244 530.676 210.53 537.691 214.215C544.293 217.683 549.347 218.215 549.209 219.25C549.071 220.274 544.175 219.102 536.972 221.407C532.903 222.708 531.11 224.156 529.78 223.21Z" fill="#446175"/>
<path d="M576.196 68.5004C575.251 68.7073 575.586 70.6484 574.393 73.1805C572.098 78.0676 566.836 79.4076 567.201 80.3732C567.595 81.4176 573.26 78.5504 578.354 81.0924C580.965 82.4029 581.921 84.3734 582.67 83.9695C583.832 83.3487 582.305 78.2745 580.867 74.9738C580.443 73.9983 577.891 68.1162 576.187 68.5004H576.196Z" fill="#446175"/>
<path d="M550.648 85.7734C550.382 85.2414 552.953 83.1328 555.683 82.1771C558.373 81.2312 561.673 81.2411 561.801 81.8125C562.038 82.9062 551.15 86.7685 550.648 85.7734Z" fill="#446175"/>
<path d="M630.584 123.943C629.142 123.943 627.973 122.774 627.973 121.332C627.973 119.89 629.142 118.721 630.584 118.721C632.026 118.721 633.195 119.89 633.195 121.332C633.195 122.774 632.026 123.943 630.584 123.943Z" fill="#E64B33"/>
</svg>
